solid OpenSCAD_Model
  facet normal -0 0 1
    outer loop
      vertex -2.9 5 100
      vertex 2.9 -5 100
      vertex 2.9 5 100
    endloop
  endfacet
  facet normal 0 0 1
    outer loop
      vertex 2.9 -5 100
      vertex -2.9 5 100
      vertex -2.9 -5 100
    endloop
  endfacet
  facet normal 0 0 -1
    outer loop
      vertex -2.9 -5 -100
      vertex 2.9 5 -100
      vertex 2.9 -5 -100
    endloop
  endfacet
  facet normal -0 0 -1
    outer loop
      vertex 2.9 5 -100
      vertex -2.9 -5 -100
      vertex -2.9 5 -100
    endloop
  endfacet
  facet normal 0 -1 0
    outer loop
      vertex -2.9 -5 -100
      vertex 2.9 -5 100
      vertex -2.9 -5 100
    endloop
  endfacet
  facet normal 0 -1 -0
    outer loop
      vertex 2.9 -5 100
      vertex -2.9 -5 -100
      vertex 2.9 -5 -100
    endloop
  endfacet
  facet normal 1 -0 0
    outer loop
      vertex 2.9 -5 100
      vertex 2.9 5 -100
      vertex 2.9 5 100
    endloop
  endfacet
  facet normal 1 0 0
    outer loop
      vertex 2.9 5 -100
      vertex 2.9 -5 100
      vertex 2.9 -5 -100
    endloop
  endfacet
  facet normal 0 1 -0
    outer loop
      vertex 2.9 5 -100
      vertex -2.9 5 100
      vertex 2.9 5 100
    endloop
  endfacet
  facet normal 0 1 0
    outer loop
      vertex -2.9 5 100
      vertex 2.9 5 -100
      vertex -2.9 5 -100
    endloop
  endfacet
  facet normal -1 0 0
    outer loop
      vertex -2.9 -5 -100
      vertex -2.9 5 100
      vertex -2.9 5 -100
    endloop
  endfacet
  facet normal -1 -0 0
    outer loop
      vertex -2.9 5 100
      vertex -2.9 -5 -100
      vertex -2.9 -5 100
    endloop
  endfacet
endsolid OpenSCAD_Model
